HIERARCHY
ROOT Hips
{
	OFFSET -10.006785 0.225719 33.511873
	CHANNELS 6 Xposition Yposition Zposition Zrotation Yrotation Xrotation 
	JOINT Spine
	{
		OFFSET 0.000005 8.340477 -2.713852
		CHANNELS 3 Zrotation Yrotation Xrotation
		JOINT Spine1
		{
			OFFSET 0.000008 11.909872 -2.100047
			CHANNELS 3 Zrotation Yrotation Xrotation
			JOINT Spine2
			{
				OFFSET 0.000015 12.047635 -1.054091
				CHANNELS 3 Zrotation Yrotation Xrotation
				JOINT Spine3
				{
					OFFSET -0.000077 12.093753 -0.000097
					CHANNELS 3 Zrotation Yrotation Xrotation
					JOINT Neck
					{
						OFFSET 0.000011 15.549124 1.554857
						CHANNELS 3 Zrotation Yrotation Xrotation
						JOINT Neck1
						{
							OFFSET 0.000037 4.687380 0.410008
							CHANNELS 3 Zrotation Yrotation Xrotation
							JOINT Head
							{
								OFFSET 0.000013 4.633807 0.817002
								CHANNELS 3 Zrotation Yrotation Xrotation
								JOINT HeadEnd
								{
									OFFSET 0.000002 9.727675 -0.000012
									CHANNELS 3 Zrotation Yrotation Xrotation
									End Site
									{
										OFFSET 0.000000 0.000000 0.000000
									}
								}
							}
						}
					}
					JOINT RightShoulder
					{
						OFFSET -0.000025 11.106406 6.072676
						CHANNELS 3 Zrotation Yrotation Xrotation
						JOINT RightArm
						{
							OFFSET -19.427872 0.000045 0.000033
							CHANNELS 3 Zrotation Yrotation Xrotation
							JOINT RightForeArm
							{
								OFFSET -29.350696 -0.000044 -0.000030
								CHANNELS 3 Zrotation Yrotation Xrotation
								JOINT RightHand
								{
									OFFSET -27.018027 -0.000148 0.000053
									CHANNELS 3 Zrotation Yrotation Xrotation
									JOINT RightHandMiddle1
									{
										OFFSET -9.244085 -0.000015 0.000012
										CHANNELS 3 Zrotation Yrotation Xrotation
										JOINT RightHandMiddle2
										{
											OFFSET -4.870013 -0.000004 0.000026
											CHANNELS 3 Zrotation Yrotation Xrotation
											JOINT RightHandMiddle3
											{
												OFFSET -3.169054 -0.000041 -0.000008
												CHANNELS 3 Zrotation Yrotation Xrotation
												JOINT RightHandMiddle4
												{
													OFFSET -1.888376 0.000012 -0.000022
													CHANNELS 3 Zrotation Yrotation Xrotation
													End Site
													{
														OFFSET 0.000000 0.000000 0.000000
													}
												}
											}
										}
									}
									JOINT RightHandRing
									{
										OFFSET -0.249973 -0.249976 -0.956510
										CHANNELS 3 Zrotation Yrotation Xrotation
										JOINT RightHandRing1
										{
											OFFSET -8.140239 0.000019 -0.734572
											CHANNELS 3 Zrotation Yrotation Xrotation
											JOINT RightHandRing2
											{
												OFFSET -4.501556 -0.000002 -0.406246
												CHANNELS 3 Zrotation Yrotation Xrotation
												JOINT RightHandRing3
												{
													OFFSET -3.068843 -0.000011 -0.276968
													CHANNELS 3 Zrotation Yrotation Xrotation
													JOINT RightHandRing4
													{
														OFFSET -1.869963 0.000024 -0.168779
														CHANNELS 3 Zrotation Yrotation Xrotation
														End Site
														{
															OFFSET 0.000000 0.000000 0.000000
														}
													}
												}
											}
										}
										JOINT RightHandPinky
										{
											OFFSET -0.163001 -0.250019 -0.975148
											CHANNELS 3 Zrotation Yrotation Xrotation
											JOINT RightHandPinky1
											{
												OFFSET -6.681510 0.000011 -1.494066
												CHANNELS 3 Zrotation Yrotation Xrotation
												JOINT RightHandPinky2
												{
													OFFSET -3.580969 0.000042 -0.800815
													CHANNELS 3 Zrotation Yrotation Xrotation
													JOINT RightHandPinky3
													{
														OFFSET -2.276501 -0.000012 -0.509044
														CHANNELS 3 Zrotation Yrotation Xrotation
														JOINT RightHandPinky4
														{
															OFFSET -1.690363 -0.000007 -0.378008
															CHANNELS 3 Zrotation Yrotation Xrotation
															End Site
															{
																OFFSET 0.000000 0.000000 0.000000
															}
														}
													}
												}
											}
										}
									}
									JOINT RightHandIndex
									{
										OFFSET -0.249989 -0.250047 0.956506
										CHANNELS 3 Zrotation Yrotation Xrotation
										JOINT RightHandIndex1
										{
											OFFSET -8.934122 0.000028 0.806239
											CHANNELS 3 Zrotation Yrotation Xrotation
											JOINT RightHandIndex2
											{
												OFFSET -4.694671 0.000040 0.423672
												CHANNELS 3 Zrotation Yrotation Xrotation
												JOINT RightHandIndex3
												{
													OFFSET -2.811711 -0.000014 0.253757
													CHANNELS 3 Zrotation Yrotation Xrotation
													JOINT RightHandIndex4
													{
														OFFSET -1.709980 -0.000024 0.154311
														CHANNELS 3 Zrotation Yrotation Xrotation
														End Site
														{
															OFFSET 0.000000 0.000000 0.000000
														}
													}
												}
											}
										}
										JOINT RightHandThumb1
										{
											OFFSET -0.163044 -0.750017 0.975110
											CHANNELS 3 Zrotation Yrotation Xrotation
											JOINT RightHandThumb2
											{
												OFFSET -5.411657 0.835551 2.244701
												CHANNELS 3 Zrotation Yrotation Xrotation
												JOINT RightHandThumb3
												{
													OFFSET -3.567162 0.550776 1.479650
													CHANNELS 3 Zrotation Yrotation Xrotation
													JOINT RightHandThumb4
													{
														OFFSET -2.150540 0.332040 0.892043
														CHANNELS 3 Zrotation Yrotation Xrotation
														End Site
														{
															OFFSET 0.000000 0.000000 0.000000
														}
													}
												}
											}
										}
									}
								}
							}
						}
					}
					JOINT LeftShoulder
					{
						OFFSET -0.000032 11.106482 6.072577
						CHANNELS 3 Zrotation Yrotation Xrotation
						JOINT LeftArm
						{
							OFFSET 19.427868 -0.000117 -0.000010
							CHANNELS 3 Zrotation Yrotation Xrotation
							JOINT LeftForeArm
							{
								OFFSET 29.350842 -0.000033 -0.000015
								CHANNELS 3 Zrotation Yrotation Xrotation
								JOINT LeftHand
								{
									OFFSET 27.018165 -0.000140 -0.000073
									CHANNELS 3 Zrotation Yrotation Xrotation
									JOINT LeftHandMiddle1
									{
										OFFSET 9.402668 0.000011 0.000010
										CHANNELS 3 Zrotation Yrotation Xrotation
										JOINT LeftHandMiddle2
										{
											OFFSET 4.950094 0.000004 0.000033
											CHANNELS 3 Zrotation Yrotation Xrotation
											JOINT LeftHandMiddle3
											{
												OFFSET 3.211975 -0.000042 -0.000013
												CHANNELS 3 Zrotation Yrotation Xrotation
												JOINT LeftHandMiddle4
												{
													OFFSET 1.927612 -0.000008 -0.000015
													CHANNELS 3 Zrotation Yrotation Xrotation
													End Site
													{
														OFFSET 0.000000 0.000000 0.000000
													}
												}
											}
										}
									}
									JOINT LeftHandRing
									{
										OFFSET 0.249934 -0.249991 -0.906146
										CHANNELS 3 Zrotation Yrotation Xrotation
										JOINT LeftHandRing1
										{
											OFFSET 8.286062 0.000020 -0.747771
											CHANNELS 3 Zrotation Yrotation Xrotation
											JOINT LeftHandRing2
											{
												OFFSET 4.585420 -0.000008 -0.413823
												CHANNELS 3 Zrotation Yrotation Xrotation
												JOINT LeftHandRing3
												{
													OFFSET 3.124417 0.000031 -0.281939
													CHANNELS 3 Zrotation Yrotation Xrotation
													JOINT LeftHandRing4
													{
														OFFSET 1.908770 -0.000050 -0.172221
														CHANNELS 3 Zrotation Yrotation Xrotation
														End Site
														{
															OFFSET 0.000000 0.000000 0.000000
														}
													}
												}
											}
										}
										JOINT LeftHandPinky
										{
											OFFSET 0.167562 -0.250028 -0.925008
											CHANNELS 3 Zrotation Yrotation Xrotation
											JOINT LeftHandPinky1
											{
												OFFSET 6.823510 0.000021 -1.525899
												CHANNELS 3 Zrotation Yrotation Xrotation
												JOINT LeftHandPinky2
												{
													OFFSET 3.642823 0.000024 -0.814597
													CHANNELS 3 Zrotation Yrotation Xrotation
													JOINT LeftHandPinky3
													{
														OFFSET 2.333095 -0.000021 -0.521729
														CHANNELS 3 Zrotation Yrotation Xrotation
														JOINT LeftHandPinky4
														{
															OFFSET 1.725490 -0.000008 -0.385863
															CHANNELS 3 Zrotation Yrotation Xrotation
															End Site
															{
																OFFSET 0.000000 0.000000 0.000000
															}
														}
													}
												}
											}
										}
									}
									JOINT LeftHandIndex
									{
										OFFSET 0.249994 -0.250048 0.906158
										CHANNELS 3 Zrotation Yrotation Xrotation
										JOINT LeftHandIndex1
										{
											OFFSET 9.088005 -0.000029 0.820120
											CHANNELS 3 Zrotation Yrotation Xrotation
											JOINT LeftHandIndex2
											{
												OFFSET 4.776535 -0.000001 0.431060
												CHANNELS 3 Zrotation Yrotation Xrotation
												JOINT LeftHandIndex3
												{
													OFFSET 2.865152 0.000019 0.258605
													CHANNELS 3 Zrotation Yrotation Xrotation
													JOINT LeftHandIndex4
													{
														OFFSET 1.745485 0.000007 0.157521
														CHANNELS 3 Zrotation Yrotation Xrotation
														End Site
														{
															OFFSET 0.000000 0.000000 0.000000
														}
													}
												}
											}
										}
										JOINT LeftHandThumb1
										{
											OFFSET 0.167520 -0.749963 0.924972
											CHANNELS 3 Zrotation Yrotation Xrotation
											JOINT LeftHandThumb2
											{
												OFFSET 5.551458 0.857112 2.302706
												CHANNELS 3 Zrotation Yrotation Xrotation
												JOINT LeftHandThumb3
												{
													OFFSET 3.625643 0.559759 1.503883
													CHANNELS 3 Zrotation Yrotation Xrotation
													JOINT LeftHandThumb4
													{
														OFFSET 2.195250 0.338948 0.910559
														CHANNELS 3 Zrotation Yrotation Xrotation
														End Site
														{
															OFFSET 0.000000 0.000000 0.000000
														}
													}
												}
											}
										}
									}
								}
							}
						}
					}
				}
			}
		}
	}
	JOINT RightUpLeg
	{
		OFFSET -8.786526 -0.000057 0.000053
		CHANNELS 3 Zrotation Yrotation Xrotation
		JOINT RightLeg
		{
			OFFSET -0.000028 -42.170380 -0.000025
			CHANNELS 3 Zrotation Yrotation Xrotation
			JOINT RightFoot
			{
				OFFSET 0.000053 -45.949084 -0.000036
				CHANNELS 3 Zrotation Yrotation Xrotation
				JOINT RightForeFoot
				{
					OFFSET -0.000044 -4.685828 -0.000004
					CHANNELS 3 Zrotation Yrotation Xrotation
					JOINT RightToeBase
					{
						OFFSET -0.000086 -0.000002 18.351098
						CHANNELS 3 Zrotation Yrotation Xrotation
						JOINT RightToeBaseEnd
						{
							OFFSET 0.000165 -0.000027 6.416979
							CHANNELS 3 Zrotation Yrotation Xrotation
							End Site
							{
								OFFSET 0.000000 0.000000 0.000000
							}
						}
					}
				}
			}
		}
	}
	JOINT LeftUpLeg
	{
		OFFSET 8.786472 0.000047 -0.000015
		CHANNELS 3 Zrotation Yrotation Xrotation
		JOINT LeftLeg
		{
			OFFSET -0.000057 -42.170503 0.000009
			CHANNELS 3 Zrotation Yrotation Xrotation
			JOINT LeftFoot
			{
				OFFSET 0.000045 -45.949120 -0.000095
				CHANNELS 3 Zrotation Yrotation Xrotation
				JOINT LeftForeFoot
				{
					OFFSET 0.000063 -4.685864 0.000037
					CHANNELS 3 Zrotation Yrotation Xrotation
					JOINT LeftToeBase
					{
						OFFSET 0.000059 0.000021 18.351056
						CHANNELS 3 Zrotation Yrotation Xrotation
						JOINT LeftToeBaseEnd
						{
							OFFSET 0.000086 0.000039 7.521946
							CHANNELS 3 Zrotation Yrotation Xrotation
							End Site
							{
								OFFSET 0.000000 0.000000 0.000000
							}
						}
					}
				}
			}
		}
	}
}
MOTION
Frames: 4
Frame Time: 0.066667
-12.495518 -0.334907 16.700806 -3.334508 6.235343 -4.569853 2.023941 -1.110843 8.782581 -0.093012 -0.300556 -0.931695 0.639759 -4.290619 1.396368 1.856459 -0.334605 7.839313 5.020300 -5.767532 10.930045 -1.066460 -3.262837 -5.307198 -0.212021 -0.181655 -2.739115 -0.004487 -0.004880 -0.002617 17.108702 -7.448843 -2.317925 54.803787 4.968210 -5.036510 179.997681 74.772247 163.748291 -17.614424 -13.175994 0.015103 33.393452 -6.831702 -0.004434 38.857586 -0.000361 -0.001774 23.210314 -0.000867 0.001330 -0.001202 -0.000513 -0.003680 -1.391394 -2.299742 -6.818013 40.655300 -5.545187 -3.354554 53.104710 2.048594 -4.138015 18.369467 0.260313 -1.629919 0.000078 0.000251 0.000120 -2.516340 -4.567811 -3.127745 35.438229 1.556095 -7.422014 44.388378 3.695784 -8.998707 32.299831 1.981037 -6.864942 0.001093 -0.001308 -0.002264 1.076948 8.260749 -1.258112 23.833754 -13.426774 2.177659 33.860580 -0.861033 2.883308 16.331423 -0.205654 1.454950 -0.000551 0.000839 -0.000534 10.923491 -10.083765 64.463211 10.473082 11.065391 6.214555 -4.832765 2.977757 -1.615090 -0.002832 0.001407 0.000305 -13.581024 3.933761 -0.965055 -56.699631 -11.761986 9.598468 179.995377 -61.223736 -166.896820 10.857702 17.092678 -0.059424 -19.932734 5.068235 -0.003618 -53.859093 -0.001507 0.002048 -26.769472 0.000891 -0.001401 0.000177 0.000842 -0.001058 -0.735512 2.340257 -12.050447 -19.085894 4.785781 -1.682950 -60.571659 -2.647256 -4.505286 -14.657373 -0.168739 -1.306915 -0.000685 0.001429 0.000672 -0.101870 2.571424 -3.878395 -9.415664 5.986105 -2.059674 -44.648167 -3.724756 -9.043621 -27.959831 -1.498908 -6.015430 0.001540 0.001308 -0.000641 -0.695531 -7.570973 -4.570676 -17.791689 14.860971 1.673209 -45.677242 1.563227 3.702274 -22.476562 0.386537 1.980114 0.000698 0.001328 0.002258 -16.632938 8.049099 52.504383 -5.009048 4.525136 1.277637 0.000000 0.000000 0.000000 -0.001591 -0.001879 0.001011 0.243592 -8.408875 -3.493119 -0.004917 -0.000581 0.485214 -0.000000 -0.000000 0.000000 -0.000000 0.000000 0.000000 0.000000 0.000000 0.000000 0.000000 0.000000 0.000000 1.616231 2.244930 18.471531 0.002093 0.001705 0.475122 -0.000000 0.000000 -0.000000 0.000000 -0.000000 -0.000000 -0.000000 0.000000 -0.000000 0.000000 0.000000 0.000000 
-13.270771 -0.272933 18.664745 -3.977436 6.673119 -4.253245 2.469713 -1.193347 8.108483 -0.073758 -0.323199 -1.011392 0.759484 -4.319127 1.376039 2.002832 -0.314714 7.808749 5.260086 -6.087241 10.916599 -1.034982 -3.574280 -5.274617 -0.177274 -0.206605 -2.698713 -0.004022 -0.004714 -0.002712 17.210617 -7.511032 -2.351825 54.676720 4.295640 -4.050100 179.995590 75.144234 162.695374 -16.390827 -13.234612 0.013779 32.855724 -6.989307 -0.005492 40.129326 -0.000205 -0.001722 23.685892 -0.000509 0.001260 -0.000823 -0.000676 -0.003810 -1.454832 -2.254427 -6.538754 39.871296 -5.576475 -3.301139 53.776688 2.091572 -4.173881 18.796694 0.269992 -1.666231 0.000150 0.000171 0.000100 -2.488457 -4.559837 -3.192778 34.500774 1.493577 -7.252414 44.581791 3.722350 -9.029585 32.886738 2.046067 -6.975090 0.001124 -0.001261 -0.002173 1.176719 8.251816 -1.147138 23.903849 -13.716913 2.187580 35.266296 -0.916729 2.988237 16.946815 -0.218556 1.508247 -0.000225 0.000835 -0.000578 10.940607 -10.402056 64.715179 10.888609 11.087695 6.361846 -4.388371 2.715838 -1.442965 -0.003124 0.001474 0.000549 -13.761265 4.050654 -1.011999 -57.003468 -10.118318 11.048468 179.995697 -61.193649 -168.770050 12.359365 17.133511 -0.058036 -20.470076 4.973300 -0.003918 -53.707596 -0.001625 0.002209 -26.747957 0.000730 -0.001121 0.000241 0.000770 -0.001047 -0.752694 2.325396 -12.067146 -19.576891 4.741645 -1.724802 -60.306946 -2.623786 -4.493795 -14.575645 -0.167511 -1.300247 -0.000306 0.001706 0.000707 -0.111412 2.539028 -3.864590 -9.680846 5.864102 -2.118114 -44.407398 -3.688833 -9.004773 -27.864176 -1.489136 -5.996987 0.001606 0.001309 -0.000680 -0.672193 -7.552695 -4.605253 -17.991346 14.910462 1.693532 -45.547169 1.555854 3.693918 -22.420834 0.383295 1.975309 0.000613 0.001102 0.002295 -16.572525 8.051868 52.605419 -4.977275 4.551242 1.258465 0.000000 0.000000 0.000000 -0.001637 -0.002083 0.000729 1.644735 -7.989377 -2.471568 -0.004847 -0.000537 0.429689 -0.000000 -0.000000 -0.000000 -0.000000 0.000000 0.000000 0.000000 0.000000 0.000000 0.000000 0.000000 0.000000 3.347727 2.625784 18.227665 0.002059 0.001836 2.296410 -0.000000 0.000000 -0.000000 0.000000 -0.000000 -0.000000 -0.000000 0.000000 -0.000000 0.000000 0.000000 0.000000 
-13.973742 -0.204579 20.745009 -4.453954 7.135870 -4.038104 2.833520 -1.269622 7.523706 -0.057456 -0.338317 -1.077820 0.873120 -4.276316 1.370123 2.144090 -0.280615 7.835821 5.449121 -6.371515 10.881841 -0.944393 -3.927110 -5.364860 -0.119500 -0.237004 -2.703245 -0.003381 -0.004479 -0.002953 17.350809 -7.686377 -2.424836 54.981476 2.959713 -1.873550 179.992935 75.880135 161.722717 -14.518719 -13.498174 0.013666 31.737537 -7.196920 -0.006255 39.927338 -0.000073 -0.001398 23.372547 -0.000026 0.001301 -0.000340 -0.000701 -0.003644 -1.458544 -2.244905 -6.421550 38.489750 -5.648912 -3.205254 53.174725 2.059354 -4.141908 18.522020 0.264569 -1.642355 0.000213 0.000130 -0.000100 -2.415227 -4.482105 -3.334962 33.304089 0.956788 -7.023893 43.905411 3.621412 -8.919935 32.667946 2.027000 -6.932712 0.001060 -0.001205 -0.001973 1.213240 8.215681 -1.078265 23.309208 -13.815881 2.141415 35.190571 -0.923345 2.983171 16.746590 -0.217432 1.491001 0.000003 0.000885 -0.000649 11.007345 -10.467091 64.465309 10.834320 11.195403 6.359304 -4.431126 2.728153 -1.466396 -0.003419 0.001497 0.000973 -14.058732 4.274946 -1.097539 -57.464333 -7.448178 13.276099 179.995819 -61.410767 -170.873337 13.353263 17.351381 -0.055449 -21.035511 4.774295 -0.003676 -53.396622 -0.001662 0.002229 -26.704563 0.000628 -0.000759 0.000279 0.000869 -0.001135 -0.788085 2.284700 -12.152145 -19.919270 4.674018 -1.753855 -59.998646 -2.594240 -4.479857 -14.479070 -0.165387 -1.292369 0.000143 0.002137 0.000571 -0.133856 2.467729 -3.895556 -9.799006 5.826285 -2.144044 -44.107910 -3.642207 -8.956382 -27.768715 -1.478362 -5.978459 0.001653 0.001441 -0.000595 -0.629294 -7.521025 -4.688328 -18.468657 14.844667 1.735371 -45.182148 1.531140 3.670226 -22.257833 0.376128 1.961137 0.000436 0.001089 0.002176 -16.499168 8.057151 52.623280 -4.876798 4.627258 1.207486 0.000000 0.000000 0.000000 -0.001840 -0.002150 0.000472 2.832388 -7.649389 -1.336212 -0.004904 -0.000434 0.430613 -0.000000 -0.000000 -0.000000 -0.000000 0.000000 0.000000 0.000000 0.000000 0.000000 0.000000 0.000000 0.000000 5.017303 3.065476 17.950897 0.001729 0.002111 4.253463 -0.000000 0.000000 -0.000000 0.000000 -0.000000 -0.000000 -0.000000 0.000000 -0.000000 0.000000 0.000000 0.000000 
-14.648651 -0.142410 22.999898 -4.730703 7.584100 -3.901932 3.107195 -1.329687 7.062479 -0.043288 -0.344146 -1.127397 0.959642 -4.169071 1.374223 2.258929 -0.232112 7.909443 5.659961 -6.689189 10.792593 -0.864785 -4.320140 -5.536237 -0.063733 -0.269007 -2.747552 -0.002440 -0.003944 -0.003285 17.470802 -7.934256 -2.514480 55.646141 1.217618 1.100431 179.989319 76.804001 161.284744 -12.205283 -13.851115 0.015680 30.367798 -7.436242 -0.006703 39.059200 -0.000197 -0.001068 22.615984 0.000659 0.001233 -0.000009 -0.000773 -0.003300 -1.430286 -2.221206 -6.412006 36.719074 -5.802903 -3.079046 52.036690 1.988752 -4.080058 17.883123 0.250170 -1.587322 0.000240 0.000019 -0.000170 -2.321489 -4.342403 -3.510082 31.801674 0.184528 -6.731478 42.958912 3.479552 -8.763831 32.133400 1.973378 -6.830288 0.000768 -0.001157 -0.001706 1.201696 8.139968 -1.001472 22.430557 -13.728299 2.068465 34.157848 -0.886224 2.906271 16.088451 -0.206081 1.434147 0.000237 0.000653 -0.000549 11.126763 -10.345941 63.850697 10.269755 11.459024 6.198324 -4.929413 3.003366 -1.665983 -0.003656 0.001460 0.001274 -14.376217 4.562346 -1.199575 -58.073231 -4.229346 16.002800 179.995667 -61.801373 -172.444641 13.797149 17.591627 -0.048535 -21.502262 4.602342 -0.002918 -52.759117 -0.001845 0.002048 -26.401655 0.000723 -0.000677 0.000377 0.001036 -0.001051 -0.837886 2.234555 -12.162906 -20.178293 4.478896 -1.776114 -59.339260 -2.539944 -4.448477 -14.207154 -0.159814 -1.268921 0.000574 0.002378 0.000788 -0.196366 2.345224 -4.020866 -9.778701 5.862684 -2.139851 -43.463978 -3.548668 -8.851996 -27.533508 -1.454898 -5.932294 0.001886 0.001440 -0.000509 -0.580634 -7.468784 -4.773160 -18.981937 14.756428 1.780417 -44.553032 1.489840 3.629188 -21.878094 0.363572 1.928919 0.000143 0.000995 0.001891 -16.405577 8.099890 52.584400 -4.745377 4.693399 1.148114 0.000000 0.000000 0.000000 -0.001701 -0.001843 0.000280 3.769640 -7.486156 -0.157923 -0.004690 -0.000333 0.410189 -0.000000 -0.000000 -0.000000 -0.000000 0.000000 0.000000 0.000000 0.000000 0.000000 0.000000 0.000000 0.000000 6.563268 3.499724 17.582657 0.001459 0.002005 6.265757 -0.000000 0.000000 -0.000000 0.000000 -0.000000 -0.000000 -0.000000 0.000000 -0.000000 0.000000 0.000000 0.000000 
